<?xml version="1.0" encoding="utf-8"?>
<!-- Svg Vector Icons : http://www.onlinewebfonts.com/icon -->
<!DOCTYPE svg PUBLIC "-//W3C//DTD SVG 1.1//EN" "http://www.w3.org/Graphics/SVG/1.1/DTD/svg11.dtd">
<svg version="1.1" xmlns="http://www.w3.org/2000/svg" xmlns:xlink="http://www.w3.org/1999/xlink" x="0px" y="0px" viewBox="0 0 1000 1000" enable-background="new 0 0 1000 1000" xml:space="preserve">
<metadata> Svg Vector Icons : http://www.onlinewebfonts.com/icon </metadata>
<g><g transform="translate(0.000000,512.000000) scale(0.100000,-0.100000)"><path d="M4942.6,5009.1c-53.6-19.1-113-86.2-124.4-139.8c-11.5-49.8-19.2-53.6-168.5-74.7c-892.2-126.4-1663.7-675.9-2065.8-1470.4c-201-394.4-279.5-708.4-294.8-1192.8l-11.5-335l-82.3-86.2c-124.4-132.1-162.7-191.5-162.7-248.9c0-84.2,51.7-114.9,197.2-114.9c147.4,0,137.9,15.3,155.1-258.5c28.7-461.4,258.5-1083.6,578.2-1560.4L3072-635l-111-436.5c-103.4-404-109.1-438.4-80.4-467.1c28.7-30.6,24.9-36.4-49.8-86.2c-124.4-86.2-419.3-229.7-742.9-367.6c-162.7-67-375.3-158.9-471-201c-97.6-42.1-266.1-103.4-373.3-135.9c-109.1-32.5-252.7-84.2-321.6-118.7c-168.5-82.3-392.5-306.3-476.7-474.8c-118.7-247-122.5-262.3-130.2-1097l-9.6-760.1H5000h4694.5l-9.6,760.1c-7.7,834.7-11.5,850-130.2,1097c-84.3,168.5-308.3,392.5-476.7,474.8c-68.9,34.5-212.5,86.2-321.6,118.7c-107.2,32.5-275.7,93.8-373.3,135.9c-95.7,42.1-308.3,134-471,201c-323.6,137.8-618.4,281.4-742.9,367.6c-74.6,49.8-78.5,55.5-49.8,86.2c28.7,28.7,23,63.2-80.4,467.1L6928-635l109.1,162.7c312.1,459.5,547.5,1099,578.2,1560.4c17.2,275.7,5.7,258.5,158.9,258.5c101.5,0,135.9,7.7,160.8,34.5c67,74.7,38.3,149.4-130.2,329.3l-82.3,86.2l-9.6,325.5c-7.7,218.3-24.9,386.7-51.7,511.2c-237.4,1118.1-1125.8,1968.2-2249.6,2150c-93.8,15.3-178,28.7-185.7,28.7c-9.6,0-15.3,19.1-15.3,44C5208.7,4965.1,5059.4,5051.2,4942.6,5009.1z M5453.8,4363.9c444.2-95.7,834.7-306.3,1154.5-622.2c323.6-319.7,522.7-662.5,631.8-1091.3c36.4-139.8,86.2-536.1,68.9-551.4c-1.9-3.8-88,32.6-187.6,80.4c-503.5,237.4-1129.6,363.8-1920.3,386.7c-930.5,24.9-1732.7-107.2-2322.3-386.7c-99.6-47.9-185.7-82.3-189.6-78.5c-17.2,15.3,36.4,419.3,72.8,561c235.5,905.6,987.9,1581.4,1922.2,1728.8C4844.9,4415.6,5289.1,4400.3,5453.8,4363.9z M5756.3,2122c446.1-51.7,878.8-164.6,1187-310.2l114.9-53.6l-1028.1-5.7c-566.7-1.9-1493.3-1.9-2058.1,0l-1030,5.7l114.9,55.5c365.7,172.3,915.2,296.8,1499.1,337C4846.8,2171.8,5459.5,2156.4,5756.3,2122z M7215.1,1174.3C7190.2,843,7088.8,490.8,6912.6,127c-382.9-783-1164-1502.9-1771-1627.4c-141.7-28.7-160.8-28.7-300.6,1.9c-296.8,67-677.8,298.7-1003.2,610.7c-606.9,582-1001.3,1357.4-1053,2062l-11.5,172.3H5000h2226.6L7215.1,1174.3z M3502.8-1184.5c59.4-34.5,174.2-114.9,252.7-180c193.4-158.9,444.2-319.7,641.4-411.6l162.7-76.6l-78.5-93.8l-78.5-91.9l-155.1,99.6c-86.2,55.5-319.7,206.8-520.8,335c-199.1,130.2-375.3,245.1-386.7,258.5c-23,21-15.3,82.3,23,199.1C3374.6-1113.6,3378.4-1115.5,3502.8-1184.5z M6654.2-1222.8c23-80.4,24.9-105.3,5.7-124.5c-13.4-11.5-185.7-126.3-386.7-256.5c-199.1-128.3-434.6-279.5-520.8-335l-155.1-99.6l-78.5,91.9l-78.5,93.8l162.7,76.6c195.3,91.9,448,252.7,639.5,411.6c126.3,101.5,331.2,235.5,369.5,239.3C6617.8-1123.2,6636.9-1169.1,6654.2-1222.8z M3692.4-2065.2l392.5-254.6l-453.8-5.7l-455.7-3.8l-515-411.6l-513.1-411.6v-612.7v-612.6H1437H728.6l5.7,561c5.7,559.1,5.7,559.1,55.5,666.3c61.3,130.2,168.5,250.8,273.8,314c44,24.9,208.7,88.1,365.7,139.8c158.9,51.7,356.1,126.4,440.3,166.6c84.2,38.3,273.8,120.6,423.1,181.9c419.3,174.2,739,344.6,913.2,490.1c30.6,24.9,63.2,45.9,74.7,45.9C3292.2-1812.4,3477.9-1927.3,3692.4-2065.2z M6790.1-1850.7c99.6-109.1,490.1-321.7,917.1-497.8c149.3-61.3,338.8-143.6,423.1-181.9c84.2-40.2,281.4-114.9,440.3-166.6c157-51.7,321.6-114.9,365.7-139.8c105.3-63.2,212.5-183.8,273.8-314c49.8-107.2,49.8-107.2,55.5-666.3l5.7-561h-698.8h-700.7v618.4v620.3l-501.6,400.1l-503.5,400.1l-476.7,9.6l-474.8,9.6l388.6,252.7c214.5,139.8,404,254.6,421.2,254.6C6742.3-1812.4,6771-1829.7,6790.1-1850.7z M5158.9-2149.4l149.4-180H5000h-308.2l149.3,180c82.3,99.6,153.2,181.9,158.9,181.9S5076.6-2049.8,5158.9-2149.4z M6950.9-2926.7c137.8-109.1,248.9-202.9,250.8-210.6c0-9.6-987.9-15.3-2196-15.3c-1340.2,0-2188.3,7.7-2176.8,17.2c9.6,9.6,124.5,105.3,256.5,210.6l239.3,191.5l1688.6,1.9h1688.6L6950.9-2926.7z M7465.9-3960.6l-5.7-407.8l-2444.9-5.7l-2446.8-3.8v411.6v411.6h2450.6h2450.6L7465.9-3960.6z"/><path d="M4879.4,3988.7c-180-45.9-335-172.3-417.4-337c-38.3-78.5-45.9-122.5-45.9-266.1c0-149.3,7.7-185.7,51.7-268c107.2-202.9,285.3-317.8,513.1-331.2c264.2-15.3,463.3,101.5,578.2,337c124.5,252.7,70.8,530.3-139.8,719.9C5277.6,3969.5,5051.7,4030.8,4879.4,3988.7z M5155.1,3531.1c99.5-99.6,67-275.7-59.4-327.4c-137.9-57.4-277.6,36.4-277.6,185.7c0,72.7,9.6,93.8,63.2,141.7C4967.5,3609.6,5076.6,3609.6,5155.1,3531.1z"/></g></g>
</svg>